<svg width="28" height="26" viewBox="0 0 28 26" fill="none" xmlns="http://www.w3.org/2000/svg">
<g filter="url(#filter0_d_47_1096)">
<path d="M22.3334 7.50002H18.3417L14.6917 2.03335C14.5334 1.80002 14.2667 1.68335 14 1.68335C13.7334 1.68335 13.4667 1.80002 13.3084 2.04168L9.65837 7.50002H5.66671C5.20837 7.50002 4.83337 7.87502 4.83337 8.33335C4.83337 8.40835 4.84171 8.48335 4.86671 8.55835L6.98337 16.2834C7.17504 16.9834 7.81671 17.5 8.58337 17.5H19.4167C20.1834 17.5 20.825 16.9834 21.025 16.2834L23.1417 8.55835L23.1667 8.33335C23.1667 7.87502 22.7917 7.50002 22.3334 7.50002ZM14 4.00002L16.3334 7.50002H11.6667L14 4.00002ZM19.4167 15.8334L8.59171 15.8417L6.75837 9.16668H21.25L19.4167 15.8334ZM14 10.8333C13.0834 10.8333 12.3334 11.5833 12.3334 12.5C12.3334 13.4167 13.0834 14.1667 14 14.1667C14.9167 14.1667 15.6667 13.4167 15.6667 12.5C15.6667 11.5833 14.9167 10.8333 14 10.8333Z" fill="#1435EB"/>
</g>
<defs>
<filter id="filter0_d_47_1096" x="0" y="0" width="28" height="28" filterUnits="userSpaceOnUse" color-interpolation-filters="sRGB">
<feFlood flood-opacity="0" result="BackgroundImageFix"/>
<feColorMatrix in="SourceAlpha" type="matrix" values="0 0 0 0 0 0 0 0 0 0 0 0 0 0 0 0 0 0 127 0" result="hardAlpha"/>
<feOffset dy="4"/>
<feGaussianBlur stdDeviation="2"/>
<feComposite in2="hardAlpha" operator="out"/>
<feColorMatrix type="matrix" values="0 0 0 0 0 0 0 0 0 0 0 0 0 0 0 0 0 0 0.25 0"/>
<feBlend mode="normal" in2="BackgroundImageFix" result="effect1_dropShadow_47_1096"/>
<feBlend mode="normal" in="SourceGraphic" in2="effect1_dropShadow_47_1096" result="shape"/>
</filter>
</defs>
</svg>
