<svg width="29" height="29" viewBox="0 0 29 29" fill="none" xmlns="http://www.w3.org/2000/svg">
<path d="M4.33334 12.6667L1.66667 18L6.21067 19.8173C6.88153 20.0856 7.4909 20.4873 8.00178 20.9982C8.51267 21.5091 8.91443 22.1185 9.18267 22.7893L11 27.3333L16.3333 24.6667L14.72 21.44C14.4287 20.8585 14.36 20.1906 14.5267 19.562C14.6934 18.9334 15.0842 18.3874 15.6253 18.0267L17.6667 16.6667L23 26L27 20.6667L23.9467 10.708L24.9 9.75601C26.7827 7.87334 28.5133 4.84667 26.3333 2.66667C24.1533 0.486672 21.12 2.21334 19.2453 4.10267L18.2853 5.04667L8.33334 2.00001L3.00001 6.00001L12.3333 11.3333L10.9733 13.3747C10.6129 13.9161 10.0669 14.3071 9.43828 14.474C8.80964 14.641 8.14164 14.5725 7.56001 14.2813L4.33334 12.6667Z" stroke="white" stroke-width="2.5" stroke-linecap="round" stroke-linejoin="round"/>
</svg>
