<svg width="25" height="24" viewBox="0 0 25 24" fill="none" xmlns="http://www.w3.org/2000/svg">
<path d="M15.5204 14H14.7304L14.4504 13.73C15.4643 12.554 16.0215 11.0527 16.0204 9.5C16.0204 8.21442 15.6392 6.95772 14.9249 5.8888C14.2107 4.81988 13.1955 3.98676 12.0078 3.49479C10.8201 3.00282 9.51318 2.87409 8.2523 3.1249C6.99142 3.3757 5.83324 3.99477 4.92419 4.90381C4.01515 5.81285 3.39609 6.97104 3.14528 8.23192C2.89448 9.49279 3.0232 10.7997 3.51517 11.9874C4.00714 13.1752 4.84026 14.1903 5.90918 14.9046C6.9781 15.6188 8.23481 16 9.52039 16C11.1304 16 12.6104 15.41 13.7504 14.43L14.0204 14.71V15.5L19.0204 20.49L20.5104 19L15.5204 14ZM9.52039 14C7.03039 14 5.02039 11.99 5.02039 9.5C5.02039 7.01 7.03039 5 9.52039 5C12.0104 5 14.0204 7.01 14.0204 9.5C14.0204 11.99 12.0104 14 9.52039 14Z" fill="white"/>
</svg>
