<svg width="31" height="36" viewBox="0 0 31 36" fill="none" xmlns="http://www.w3.org/2000/svg">
<path d="M25.1667 35.3335H21.8334V33.6668H8.50002V35.3335H5.16669V33.6668H3.50002C2.61597 33.6668 1.76812 33.3156 1.143 32.6905C0.517876 32.0654 0.166687 31.2176 0.166687 30.3335V8.66683C0.166687 7.78277 0.517876 6.93493 1.143 6.30981C1.76812 5.68469 2.61597 5.3335 3.50002 5.3335H8.50002V2.00016C8.50002 1.55814 8.67562 1.13421 8.98818 0.821651C9.30074 0.509091 9.72466 0.333496 10.1667 0.333496H20.1667C20.6087 0.333496 21.0326 0.509091 21.3452 0.821651C21.6578 1.13421 21.8334 1.55814 21.8334 2.00016V5.3335H26.8334C27.7174 5.3335 28.5653 5.68469 29.1904 6.30981C29.8155 6.93493 30.1667 7.78277 30.1667 8.66683V30.3335C30.1667 31.2176 29.8155 32.0654 29.1904 32.6905C28.5653 33.3156 27.7174 33.6668 26.8334 33.6668H25.1667V35.3335ZM26.8334 8.66683H3.50002V30.3335H26.8334V8.66683ZM11.8334 12.0002V27.0002H8.50002V12.0002H11.8334ZM21.8334 12.0002V27.0002H18.5V12.0002H21.8334ZM18.5 3.66683H11.8334V5.3335H18.5V3.66683Z" fill="#1435EB"/>
</svg>
