<svg width="31" height="36" viewBox="0 0 31 36" fill="none" xmlns="http://www.w3.org/2000/svg">
<path d="M25.5 35.3335H22.1667V33.6668H8.83333V35.3335H5.5V33.6668H3.83333C2.94928 33.6668 2.10143 33.3157 1.47631 32.6905C0.851189 32.0654 0.5 31.2176 0.5 30.3335V8.66683C0.5 7.78278 0.851189 6.93493 1.47631 6.30981C2.10143 5.68469 2.94928 5.3335 3.83333 5.3335H8.83333V2.00016C8.83333 1.55814 9.00893 1.13421 9.32149 0.821652C9.63405 0.509091 10.058 0.333496 10.5 0.333496H20.5C20.942 0.333496 21.3659 0.509091 21.6785 0.821652C21.9911 1.13421 22.1667 1.55814 22.1667 2.00016V5.3335H27.1667C28.0507 5.3335 28.8986 5.68469 29.5237 6.30981C30.1488 6.93493 30.5 7.78278 30.5 8.66683V30.3335C30.5 31.2176 30.1488 32.0654 29.5237 32.6905C28.8986 33.3157 28.0507 33.6668 27.1667 33.6668H25.5V35.3335ZM27.1667 8.66683H3.83333V30.3335H27.1667V8.66683ZM12.1667 12.0002V27.0002H8.83333V12.0002H12.1667ZM22.1667 12.0002V27.0002H18.8333V12.0002H22.1667ZM18.8333 3.66683H12.1667V5.3335H18.8333V3.66683Z" fill="white"/>
</svg>
