<svg width="20" height="22" viewBox="0 0 20 22" fill="none" xmlns="http://www.w3.org/2000/svg">
<path d="M9.87903 11C12.6405 11 14.879 8.76142 14.879 6C14.879 3.23858 12.6405 1 9.87903 1C7.1176 1 4.87903 3.23858 4.87903 6C4.87903 8.76142 7.1176 11 9.87903 11Z" stroke="white" stroke-width="1.5"/>
<path d="M14.879 13H15.231C15.9621 13.0002 16.6679 13.2674 17.2159 13.7513C17.7639 14.2352 18.1164 14.9026 18.207 15.628L18.598 18.752C18.6332 19.0334 18.6081 19.3191 18.5244 19.5901C18.4407 19.8611 18.3004 20.1112 18.1127 20.3238C17.9249 20.5364 17.6941 20.7066 17.4356 20.8232C17.177 20.9398 16.8966 21.0001 16.613 21H3.14503C2.86141 21.0001 2.58102 20.9398 2.32247 20.8232C2.06393 20.7066 1.83313 20.5364 1.6454 20.3238C1.45768 20.1112 1.31732 19.8611 1.23363 19.5901C1.14995 19.3191 1.12486 19.0334 1.16003 18.752L1.55003 15.628C1.64072 14.9022 1.99344 14.2346 2.54186 13.7506C3.09028 13.2667 3.79661 12.9997 4.52803 13H4.87903" stroke="white" stroke-width="1.5" stroke-linecap="round" stroke-linejoin="round"/>
</svg>
